<?xml version="1.0" encoding="UTF-8" standalone="no"?>
<!DOCTYPE svg PUBLIC "-//W3C//DTD SVG 1.1//EN" "http://www.w3.org/Graphics/SVG/1.1/DTD/svg11.dtd">
<svg width="100%" height="100%" viewBox="0 0 200 48" version="1.1" xmlns="http://www.w3.org/2000/svg" xmlns:xlink="http://www.w3.org/1999/xlink" xml:space="preserve" xmlns:serif="http://www.serif.com/" style="fill-rule:evenodd;clip-rule:evenodd;stroke-linejoin:round;stroke-miterlimit:2;">
    <g id="nimble-tag-2" transform="matrix(0.749064,0,0,0.75,0,0)">
        <rect x="0" y="0" width="267" height="64" style="fill:none;"/>
        <clipPath id="_clip1">
            <rect x="0" y="0" width="267" height="64"/>
        </clipPath>
        <g clip-path="url(#_clip1)">
            <g id="background" transform="matrix(1.00125,0,0,1,0,-7.57912e-14)">
                <path d="M243.809,0.001L243.81,0L266.667,32L243.81,64L243.809,63.999L243.809,64L27.713,64L27.713,0L243.809,0L243.809,0.001Z" style="fill:rgb(253,253,253);"/>
            </g>
            <g id="box" transform="matrix(1.00125,0,0,1,0,-7.57912e-14)">
                <g id="top" transform="matrix(0.5,0,0,0.5,-277.128,-48)">
                    <path d="M609.682,96L554.256,128L557.871,162.489L609.682,160L655.887,161.182L665.108,128L609.682,96Z" style="fill:rgb(30,32,42);"/>
                </g>
                <g id="left" transform="matrix(0.15396,0.0888889,0,0.177778,-101.614,-85.3333)">
                    <path d="M840,240L660,240L660,420L840,420L886.882,306.559L840,240Z" style="fill:rgb(43,46,59);"/>
                </g>
                <g id="right" transform="matrix(-0.15396,0.0888889,0,0.177778,157.039,-85.3333)">
                    <rect x="660" y="240" width="180" height="180" style="fill:rgb(23,25,33);"/>
                </g>
                <g id="crown" transform="matrix(0.259483,0.149813,0,0.299625,-228.916,-215.341)">
                    <g id="crown-front" serif:id="crown front" transform="matrix(1,0,0,1,368.129,-117.29)">
                        <path d="M534.666,498.777C534.666,498.777 538.498,508.055 541.159,514.502C552.436,529.38 581.233,530.415 593.787,514.79C596.758,508.095 600.766,498.687 600.766,498.687C597.545,503.458 592.303,506.752 589.075,508.526C586.781,509.782 581.489,510.542 581.489,510.542L567.593,503.341L553.617,510.398C553.617,510.398 548.395,509.559 546.031,508.454C541.259,505.906 538.049,502.897 534.666,498.777Z" style="fill:rgb(255,233,83);fill-rule:nonzero;"/>
                    </g>
                    <g id="crown-back" serif:id="crown back" transform="matrix(1,0,0,1,368.129,-117.29)">
                        <path d="M567.753,477.29C567.753,477.29 565.025,479.446 562.244,481.587C559.382,481.497 553.771,482.137 550.73,483.243C547.929,481.468 545.468,479.509 545.468,479.509C545.468,479.509 543.365,483.127 542.042,485.251C540.081,486.294 538.111,487.467 536.356,489.02C534.314,488.209 531.948,487.221 531.871,487.188C534.574,492.641 536.392,498.102 541.336,501.384C549.207,488.952 585.784,490.098 593.817,501.313C599.009,498.605 601.029,492.779 603.071,487.399C602.847,487.473 600.068,488.403 598.267,489.09C597.192,487.92 594.658,486.12 593.217,485.251C591.851,482.749 589.862,479.368 589.862,479.368C589.862,479.368 587.506,481.12 584.776,483.032C581.088,482.351 576.626,481.524 572.874,481.728C570.32,479.629 567.753,477.29 567.753,477.29L567.753,477.29Z" style="fill:rgb(243,212,0);fill-rule:nonzero;"/>
                    </g>
                </g>
            </g>
            <g id="text" transform="matrix(1.50187,0,0,1.5,-17.5053,-16)">
                <g id="n" transform="matrix(0.655738,0,0,0.655738,-351.047,-296.977)">
                    <path d="M619.871,522.09L619.871,490.89L635.471,490.89C639.871,490.89 643.871,494.89 643.871,499.29C643.871,503.69 643.871,522.09 643.871,522.09L638.271,522.09C638.271,522.09 638.271,507.69 638.271,500.49C638.271,498.315 636.671,496.49 634.271,496.49L625.471,496.49L625.471,526.09L619.871,522.09Z" style="fill:rgb(205,179,0);fill-rule:nonzero;"/>
                </g>
                <g id="i" transform="matrix(0.655738,0,0,0.655738,-2.27929,16)">
                    <path d="M128,44.8L122.4,44.8L122.4,13.6L128,13.6L128,44.8ZM122.4,6.4L128,6.4L128,0L122.4,4L122.4,6.4Z" style="fill:rgb(205,179,0);fill-rule:nonzero;"/>
                </g>
                <g id="m" transform="matrix(0.655738,0,0,0.655738,-351.047,-296.977)">
                    <path d="M675.871,522.09L670.271,522.09L670.271,490.89L701.071,490.89C705.871,490.89 709.471,494.49 709.471,499.29L709.471,522.09L703.871,522.09L703.871,500.49C703.871,498.09 702.271,496.49 699.871,496.49L692.671,496.49L692.671,522.09L687.071,522.09L687.071,496.49L675.871,496.49L675.871,522.09Z" style="fill:rgb(205,179,0);fill-rule:nonzero;"/>
                </g>
                <g id="b" transform="matrix(0.655738,0,0,0.655738,55.4256,16)">
                    <path d="M100,4L105.6,0L105.6,13.6L115.601,13.6C120,13.6 124,17.6 124.001,22C124.001,24.746 124.001,28.182 124.001,30.376C124.001,31.593 124.001,33.694 124.001,36.4C124,40.8 120,44.8 115.601,44.8L100,44.8L100,4ZM105.6,19.2L105.6,39.2L114.4,39.2C116.8,39.2 118.4,37.375 118.4,35.2C118.4,32.232 118.4,30.692 118.4,29.906C118.4,28.443 118.4,26.282 118.4,23.2C118.4,21.025 116.8,19.2 114.4,19.2L105.6,19.2Z" style="fill:rgb(205,179,0);fill-rule:nonzero;"/>
                </g>
                <g id="l" transform="matrix(0.655738,0,0,0.655738,55.4256,16)">
                    <path d="M140.001,44.8L134.401,44.8L134.401,4L140.001,0L140.001,44.8Z" style="fill:rgb(205,179,0);fill-rule:nonzero;"/>
                </g>
                <g id="e" transform="matrix(0.655738,0,0,0.655738,55.4256,16)">
                    <path d="M170.401,48.8L158.801,48.8C154.401,48.8 150.401,44.8 150.401,40.4C150.4,36 150.401,35.503 150.401,35.503L150.401,26.897L150.4,26.897L150.4,13.6L166.001,13.6C170.4,13.6 174.4,17.6 174.401,22C174.401,26.354 174.401,26.886 174.401,26.897L174.401,26.897L174.401,32.497L156.001,32.497L156.001,35.503C156.001,35.503 156.001,36.302 156.001,39.2C156.001,41.375 157.601,43.2 160.001,43.2L174.401,43.2L170.401,48.8ZM164.8,19.2L156,19.2L156,26.897L156.001,26.897L168.801,26.897C168.801,26.897 168.8,26.098 168.8,23.2C168.8,21.025 167.2,19.2 164.8,19.2Z" style="fill:rgb(205,179,0);"/>
                </g>
            </g>
        </g>
    </g>
</svg>
