<?xml version="1.0" encoding="UTF-8" standalone="no"?>
<!DOCTYPE svg PUBLIC "-//W3C//DTD SVG 1.1//EN" "http://www.w3.org/Graphics/SVG/1.1/DTD/svg11.dtd">
<svg width="100%" height="100%" viewBox="0 0 192 48" version="1.1" xmlns="http://www.w3.org/2000/svg" xmlns:xlink="http://www.w3.org/1999/xlink" xml:space="preserve" xmlns:serif="http://www.serif.com/" style="fill-rule:evenodd;clip-rule:evenodd;stroke-linejoin:round;stroke-miterlimit:2;">
    <g id="nimble-tag-2" transform="matrix(0.719101,0,0,0.75,0,0)">
        <rect x="0" y="0" width="267" height="64" style="fill:none;"/>
        <clipPath id="_clip1">
            <rect x="0" y="0" width="267" height="64"/>
        </clipPath>
        <g clip-path="url(#_clip1)">
            <g id="background" transform="matrix(1.34268,0,0,1.33333,1.15076,0)">
                <path d="M198,6C198,4.409 197.345,2.883 196.18,1.757C195.014,0.632 193.434,0 191.786,0C160.748,0 24,0 24,0L24,48L191.786,48C193.434,48 195.014,47.368 196.18,46.243C197.345,45.117 198,43.591 198,42C198,32.778 198,15.222 198,6Z" style="fill:rgb(35,39,51);"/>
            </g>
            <g id="text" transform="matrix(0.28125,0,0,0.28125,77.4189,8)">
                <g id="n" transform="matrix(3.64754,0,0,3.49727,-2261,-1669.21)">
                    <path d="M619.871,522.09L619.871,490.89L635.471,490.89C639.871,490.89 643.871,494.89 643.871,499.29C643.871,503.69 643.871,522.09 643.871,522.09L638.271,522.09C638.271,522.09 638.271,507.69 638.271,500.49C638.271,498.315 636.671,496.49 634.271,496.49L625.471,496.49L625.471,526.09L619.871,522.09Z" style="fill:rgb(255,233,83);fill-rule:nonzero;"/>
                </g>
                <g id="i" transform="matrix(3.64754,0,0,3.49727,-320.984,-3.46725e-07)">
                    <path d="M128,44.8L122.4,44.8L122.4,13.6L128,13.6L128,44.8ZM122.4,6.4L128,6.4L128,0L122.4,4L122.4,6.4Z" style="fill:rgb(255,233,83);fill-rule:nonzero;"/>
                </g>
                <g id="m" transform="matrix(3.64754,0,0,3.49727,-2261,-1669.21)">
                    <path d="M675.871,522.09L670.271,522.09L670.271,490.89L701.071,490.89C705.871,490.89 709.471,494.49 709.471,499.29L709.471,522.09L703.871,522.09L703.871,500.49C703.871,498.09 702.271,496.49 699.871,496.49L692.671,496.49L692.671,522.09L687.071,522.09L687.071,496.49L675.871,496.49L675.871,522.09Z" style="fill:rgb(255,233,83);fill-rule:nonzero;"/>
                </g>
                <g id="b" transform="matrix(3.64754,0,0,3.49727,7.11431e-13,-3.46725e-07)">
                    <path d="M100,4L105.6,0L105.6,13.6L115.601,13.6C120,13.6 124,17.6 124.001,22C124.001,24.746 124.001,28.182 124.001,30.376C124.001,31.593 124.001,33.694 124.001,36.4C124,40.8 120,44.8 115.601,44.8L100,44.8L100,4ZM105.6,19.2L105.6,39.2L114.4,39.2C116.8,39.2 118.4,37.375 118.4,35.2C118.4,32.232 118.4,30.692 118.4,29.906C118.4,28.443 118.4,26.282 118.4,23.2C118.4,21.025 116.8,19.2 114.4,19.2L105.6,19.2Z" style="fill:rgb(255,233,83);fill-rule:nonzero;"/>
                </g>
                <g id="l" transform="matrix(3.64754,0,0,3.49727,7.11431e-13,-3.46725e-07)">
                    <path d="M140.001,44.8L134.401,44.8L134.401,4L140.001,0L140.001,44.8Z" style="fill:rgb(255,233,83);fill-rule:nonzero;"/>
                </g>
                <g id="e" transform="matrix(1.39062,0,0,1.33333,0,0)">
                    <path d="M409.182,83.934L409.182,92.553L409.182,92.553L409.182,93.123C409.182,93.123 409.183,95.218 409.183,102.82C409.183,108.525 413.38,113.311 419.675,113.311L457.445,113.311L446.953,128L416.526,128C404.986,128 394.494,117.508 394.493,105.967C394.493,94.426 394.493,93.123 394.493,93.123L394.493,70.549L394.493,70.549L394.493,35.672L435.412,35.672C446.952,35.672 457.444,46.164 457.445,57.705L457.445,63.772L457.445,63.772L457.445,83.934L409.182,83.934ZM409.182,69.246L442.757,69.246L442.757,67.374L442.756,67.374L442.755,60.852C442.755,55.148 438.559,50.361 432.264,50.361L409.182,50.361L409.182,69.246Z" style="fill:rgb(255,233,83);"/>
                </g>
            </g>
            <g id="icon">
                <g id="background1" serif:id="background" transform="matrix(1.39062,0,0,1.33333,0,0)">
                    <circle cx="24" cy="24" r="24" style="fill:rgb(255,233,83);"/>
                </g>
                <g id="nim-logo" serif:id="nim logo" transform="matrix(1.39062,0,0,1.33333,0,0)">
                    <path d="M5.85,22.388C5.85,22.388 7.97,27.522 9.442,31.089C15.682,39.32 31.614,39.893 38.56,31.248C40.204,27.544 42.421,22.338 42.421,22.338C40.639,24.978 37.739,26.8 35.953,27.782C34.684,28.477 31.756,28.898 31.756,28.898L24.068,24.914L16.335,28.818C16.335,28.818 13.446,28.354 12.138,27.742C9.498,26.333 7.722,24.668 5.85,22.388ZM24.156,10.5C24.156,10.5 22.647,11.693 21.108,12.878C19.525,12.827 16.42,13.182 14.738,13.794C13.188,12.812 11.826,11.728 11.826,11.728C11.826,11.728 10.663,13.73 9.931,14.905C8.846,15.482 7.756,16.131 6.785,16.99C5.655,16.541 4.346,15.995 4.303,15.976C5.799,18.994 6.805,22.015 9.54,23.83C13.895,16.953 34.132,17.586 38.577,23.791C41.45,22.293 42.567,19.07 43.697,16.093C43.573,16.134 42.036,16.649 41.039,17.029C40.444,16.381 39.042,15.385 38.245,14.905C37.489,13.52 36.389,11.65 36.389,11.65C36.389,11.65 35.085,12.619 33.575,13.677C31.534,13.3 29.066,12.842 26.99,12.956C25.576,11.794 24.156,10.5 24.156,10.5L24.156,10.5Z" style="fill:rgb(35,39,51);fill-rule:nonzero;"/>
                </g>
            </g>
        </g>
    </g>
</svg>
